#!OML:ASF F:\VICON\USERDATA\INSTALL\rory3\rory3.ASF
:FULLY-SPECIFIED
:DEGREES
212
root 0.110579 17.9927 -1.00626 1.90567 -9.5928 1.44198
lowerback -0.85849 -0.255705 -2.57569
upperback 0.0486011 -0.32403 1.65414
thorax 0.555115 -0.172176 3.13906
lowerneck -20.7638 -0.165906 -8.25212
upperneck 31.8609 2.43811 1.16463
head 14.3431 0.170405 2.32894
rclavicle -4.96962e-015 1.19271e-014
rhumerus -7.81223 47.9164 -72.7442
rradius 117.639
rwrist 39.6718
rhand 3.23877 12.8569
rfingers 7.12502
rthumb 28.6887 -14.96
lclavicle -4.96962e-015 1.19271e-014
lhumerus -34.3717 -29.7342 100.972
lradius 86.5099
lwrist 5.87941
lhand -17.874 22.2326
lfingers 7.12502
lthumb 8.39195 52.0459
rfemur -8.17847 7.89917 14.2902
rtibia 24.8076
rfoot -15.6305 -3.3166
rtoes 3.86472
lfemur -0.251996 -1.28404 -22.1777
ltibia 12.905
lfoot -10.4514 4.47398
ltoes -11.626
213
root 0.108139 17.9924 -1.00773 1.91623 -9.66928 1.39347
lowerback -0.88292 -0.22187 -2.54456
upperback 0.07127 -0.27876 1.66145
thorax 0.588612 -0.150292 3.12956
lowerneck -20.687 -0.176123 -8.18385
upperneck 31.753 2.38452 1.16568
head 14.2813 0.160929 2.30505
rclavicle -1.84373e-014 7.95139e-016
rhumerus -7.8236 47.7314 -72.7442
rradius 117.726
rwrist 39.6132
rhand 3.58673 13.6223
rfingers 7.12502
rthumb 29.0211 -14.1378
lclavicle -1.84373e-014 7.95139e-016
lhumerus -34.3612 -29.6364 100.891
lradius 86.4977
lwrist 5.77225
lhand -18.0539 22.2252
lfingers 7.12502
lthumb 8.21836 52.0453
rfemur -8.1833 7.99344 14.3427
rtibia 24.791
rfoot -15.651 -3.31817
rtoes 4.02518
lfemur -0.275976 -1.33642 -22.1341
ltibia 12.9701
lfoot -10.4747 4.6244
ltoes -11.4191
214
root 0.105465 17.9929 -1.01598 1.91248 -9.49684 1.36803
lowerback -0.79287 -0.272143 -2.53067
upperback 0.0704898 -0.347813 1.66681
thorax 0.542322 -0.184062 3.12663
lowerneck -20.6971 -0.198345 -8.12395
upperneck 31.7296 2.34547 1.12022
head 14.2771 0.145737 2.26908
rclavicle 1.98785e-014 -6.75868e-015
rhumerus -7.8898 47.5413 -72.7916
rradius 117.847
rwrist 39.5743
rhand 3.93194 14.4713
rfingers 7.12502
rthumb 29.3507 -13.2316
lclavicle 1.98785e-014 -6.75868e-015
lhumerus -34.3408 -29.6771 100.888
lradius 86.4224
lwrist 6.10738
lhand -18.4826 22.2776
lfingers 7.12502
lthumb 7.80458 52.1136
rfemur -8.16294 7.94258 14.3967
rtibia 24.7904
rfoot -15.693 -3.427
rtoes 4.18049
lfemur -0.307872 -1.51334 -22.0881
ltibia 12.9829
lfoot -10.4252 4.6113
ltoes -11.2577
215
root 0.101717 17.9938 -1.03105 1.88888 -9.1338 1.36754
lowerback -0.594915 -0.404218 -2.57718
upperback 0.0542863 -0.52775 1.68949
thorax 0.428508 -0.272219 3.17527
lowerneck -20.6833 -0.218048 -8.20035
upperneck 31.7094 2.31795 1.19009
head 14.2644 0.135497 2.30507
rclavicle 2.98922e-014 -1.74931e-014
rhumerus -7.87269 47.4231 -72.767
rradius 117.946
rwrist 39.5048
rhand 4.08225 15.1723
rfingers 7.12502
rthumb 29.4942 -12.5053
lclavicle 2.98922e-014 -1.74931e-014
lhumerus -34.3369 -29.8005 100.951
lradius 86.289
lwrist 6.99023
lhand -19.1064 22.0042
lfingers 7.12502
lthumb 7.20243 51.8617
rfemur -8.11864 7.75265 14.4418
rtibia 24.8158
rfoot -15.7671 -3.56893
rtoes 4.27438
lfemur -0.326796 -1.57728 -22.0332
ltibia 12.8908
lfoot -10.284 4.29774
ltoes -11.3642
216
root 0.100936 17.9937 -1.02855 1.77884 -9.09046 1.49427
lowerback -0.539435 -0.411183 -2.70987
upperback 0.086357 -0.537155 1.66991
thorax 0.43205 -0.277714 3.23012
lowerneck -20.6232 -0.253473 -8.34488
upperneck 31.6702 2.25418 1.35413
head 14.2324 0.116239 2.38371
rclavicle -1.04362e-014 -3.97569e-015
rhumerus -7.91761 47.275 -72.7354
rradius 118.017
rwrist 39.4345
rhand 3.98297 15.9689
rfingers 7.12502
rthumb 29.3994 -11.7255
lclavicle -1.04362e-014 -3.97569e-015
lhumerus -34.3363 -29.8128 100.981
lradius 86.1672
lwrist 7.28588
lhand -19.3604 21.8025
lfingers 7.12502
lthumb 6.95729 51.6682
rfemur -8.02222 7.67831 14.3144
rtibia 24.8636
rfoot -15.7957 -3.5783
rtoes 3.71819
lfemur -0.140686 -1.64129 -22.1825
ltibia 12.7385
lfoot -10.2584 4.30317
ltoes -11.4595
217
root 0.103727 17.9882 -1.00599 1.54913 -9.47834 1.63719
lowerback -0.654826 -0.271776 -2.7792
upperback 0.209771 -0.34753 1.61898
thorax 0.609014 -0.187699 3.2178
lowerneck -20.5701 -0.293357 -8.44486
upperneck 31.6588 2.18358 1.47594
head 14.2163 0.0921443 2.43706
rclavicle 4.00054e-015 -5.56597e-015
rhumerus -7.94167 47.1076 -72.7084
rradius 118.032
rwrist 39.3577
rhand 3.92474 16.7854
rfingers 7.12502
rthumb 29.3438 -10.9187
lclavicle 4.00054e-015 -5.56597e-015
lhumerus -34.2328 -29.6407 100.847
lradius 86.0286
lwrist 6.50573
lhand -18.6914 21.8551
lfingers 7.12502
lthumb 7.60298 51.6984
rfemur -7.83134 7.83158 14.1352
rtibia 24.9195
rfoot -15.7749 -3.34129
rtoes 3.59021
lfemur 0.295179 -1.6597 -22.4273
ltibia 12.5751
lfoot -10.2993 4.72315
ltoes -11.7296
